<svg xmlns="http://www.w3.org/2000/svg" version="1.1" xmlns:xlink="http://www.w3.org/1999/xlink" xmlns:svgjs="http://svgjs.dev/svgjs" width="1500" height="1500" viewBox="0 0 1500 1500"><rect width="1500" height="1500" fill="#ede1d1"></rect><g transform="matrix(0.6666666666666666,0,0,0.6666666666666666,249.39393939393938,676.0009940508003)"><svg viewBox="0 0 396 58" data-background-color="#ede1d1" preserveAspectRatio="xMidYMid meet" height="219" width="1500" xmlns="http://www.w3.org/2000/svg" xmlns:xlink="http://www.w3.org/1999/xlink"><g id="tight-bounds" transform="matrix(1,0,0,1,0.2400000000000091,0.3968653770793651)"><svg viewBox="0 0 395.52 57.20626924584126" height="57.20626924584126" width="395.52"><g><svg viewBox="0 0 500.4125560110759 72.37746615384616" height="57.20626924584126" width="395.52"><g><rect width="4.722919385889232" height="62.84584615384615" x="87.80597331134052" y="4.765810000000002" fill="#6a704c" opacity="1" stroke-width="0" stroke="transparent" fill-opacity="1" class="rect-yte-0" data-fill-palette-color="primary" rx="1%" id="yte-0" data-palette-color="#6a704c"></rect></g><g transform="matrix(1,0,0,1,104.89255601107591,10.002963846153847)"><svg viewBox="0 0 395.52 52.371538461538464" height="52.371538461538464" width="395.52"><g id="textblocktransform"><svg viewBox="0 0 395.52 52.371538461538464" height="52.371538461538464" width="395.52" id="textblock"><g><svg viewBox="0 0 395.52 52.371538461538464" height="52.371538461538464" width="395.52"><g transform="matrix(1,0,0,1,0,0)"><svg width="395.52" viewBox="1.46 -31.74 243.73 32.28" height="52.371538461538464" data-palette-color="#6a704c"><path d="M38.13-28.03L38.13-29.3 30.32-29.3 19.78-5.42 8.45-29.3 1.46-29.3 1.46-28.03 5.37-28.03 5.37-1.27 1.46-1.27 1.46 0 11.23 0Q11.23-1.07 10.45-1.22L10.45-1.22Q10.21-1.27 9.96-1.27L9.96-1.27 7.32-1.27 7.32-22.27 18.02 0.24 19.04 0.24 30.32-24.9 30.32-1.27 26.42-1.27 26.42 0 38.13 0Q38.13-1.07 37.35-1.22L37.35-1.22Q37.11-1.27 36.87-1.27L36.87-1.27 34.23-1.27 34.23-28.03 38.13-28.03ZM58.69 0.49L58.69 0.49Q62.45 0.49 62.84-4.05L62.84-4.05Q62.89-4.35 62.89-4.59L62.89-4.59 61.62-4.64Q61.28-1.07 59.71-1.03L59.71-1.03Q58.44-1.12 58.4-3.56L58.4-3.56 58.4-13.87Q58.4-20.85 51.41-21.24L51.41-21.24Q50.97-21.24 50.53-21.24L50.53-21.24Q45.07-21.24 43.21-18.7L43.21-18.7Q42.62-17.87 42.62-17.04L42.62-17.04Q42.62-15.53 44.04-15.28L44.04-15.28Q44.28-15.23 44.53-15.23L44.53-15.23Q45.65-15.23 46.19-16.65L46.19-16.65Q46.87-18.46 47.12-18.8L47.12-18.8Q48.04-20.02 50-20.02L50-20.02Q54.59-19.73 54.73-14.99L54.73-14.99 54.73-11.91Q43.26-11.91 41.6-7.13L41.6-7.13Q41.31-6.2 41.31-5.13L41.31-5.13Q41.31-1.42 44.58-0.05L44.58-0.05Q45.9 0.49 47.36 0.49L47.36 0.49Q50.93 0.49 53.37-1.95L53.37-1.95Q54.25-2.88 54.69-3.91L54.69-3.91Q55.27 0.44 58.69 0.49ZM48.97-1.46L48.97-1.46Q45.99-1.46 45.31-4.44L45.31-4.44Q45.16-5.13 45.16-5.96L45.16-5.96Q45.16-9.23 48.92-10.11L48.92-10.11Q50.93-10.55 54.73-10.6L54.73-10.6 54.73-6.69Q54-3.32 51.17-1.95L51.17-1.95Q50.05-1.46 48.97-1.46ZM75.53-1.22L75.53-1.22 72.02-1.22 72.02-10.94Q72.02-15.38 74.75-18.07L74.75-18.07Q75.83-19.09 76.56-19.14L76.56-19.14Q77.39-19.14 78.07-17.92L78.07-17.92Q78.85-16.55 79.54-16.36L79.54-16.36Q79.83-16.26 80.12-16.26L80.12-16.26Q81.59-16.26 81.98-17.68L81.98-17.68Q82.08-17.97 82.08-18.26L82.08-18.26Q82.08-20.46 79.83-20.95L79.83-20.95Q79.34-21.04 78.9-21.04L78.9-21.04Q75.97-21.04 73.68-18.55L73.68-18.55Q72.6-17.38 71.97-15.92L71.97-15.92 71.77-20.75 64.69-20.75 64.69-19.53 68.35-19.53 68.35-4.15Q68.35-1.9 67.08-1.46L67.08-1.46Q66.35-1.22 64.69-1.22L64.69-1.22 64.69 0 76.75 0Q76.75-1.07 76.02-1.17L76.02-1.17Q75.83-1.22 75.53-1.22ZM93.35-1.22L93.35-1.22 91.15-1.22 91.15-8.45 93.84-10.94 100.72 0 107.22 0Q107.22-1.07 106.49-1.17L106.49-1.17Q106.29-1.22 106-1.22L106-1.22 104.24-1.22 96.38-13.33 100.97-17.63Q102.68-19.24 103.56-19.43L103.56-19.43Q103.95-19.53 104.44-19.53L104.44-19.53Q105.51-19.53 105.61-20.26L105.61-20.26Q105.66-20.51 105.66-20.75L105.66-20.75 97.36-20.75 97.36-19.53 101.02-19.53 91.15-10.4 91.15-31.74 83.83-31.74 83.83-30.52 87.49-30.52 87.49-4.15Q87.49-1.9 86.22-1.46L86.22-1.46Q85.49-1.22 83.83-1.22L83.83-1.22 83.83 0 94.57 0Q94.57-1.07 93.84-1.17L93.84-1.17Q93.64-1.22 93.35-1.22ZM118.89-20.02L118.89-20.02Q122.3-20.02 123.43-17.14L123.43-17.14Q123.82-16.21 123.82-15.14L123.82-15.14Q123.82-12.7 121.47-12.16L121.47-12.16Q120.25-11.91 118.01-11.96L118.01-11.96 112.83-12.11Q113.08-17.72 116.49-19.43L116.49-19.43Q117.62-20.02 118.89-20.02ZM127.38-4.69L127.38-4.69 126.16-5.13Q124.45-1.42 120.64-0.93L120.64-0.93Q120.16-0.88 119.72-0.88L119.72-0.88Q114.59-0.88 113.27-6.98L113.27-6.98Q112.88-8.69 112.83-10.74L112.83-10.74 118.69-10.64Q124.65-10.55 126.36-11.77L126.36-11.77Q127.68-12.74 127.68-14.55L127.68-14.55Q127.68-17.87 124.31-19.82L124.31-19.82Q121.91-21.24 118.79-21.24L118.79-21.24Q112.69-21.24 110.05-16.16L110.05-16.16Q108.68-13.53 108.68-10.21L108.68-10.21Q108.68-4.15 113.03-1.22L113.03-1.22Q115.62 0.49 118.94 0.49L118.94 0.49Q124.21 0.49 126.7-3.32L126.7-3.32Q127.09-4 127.38-4.69ZM130.36-20.75L130.36-19.53 133.78-19.53 133.78-5.76Q134.12 0.34 139.39 0.54L139.39 0.54Q143.88 0.54 145.01-4.98L145.01-4.98Q145.01-5.03 145.01-5.08L145.01-5.08 143.69-5.32Q142.47-1.27 140.12-0.93L140.12-0.93Q137.49-1.03 137.44-4.69L137.44-4.69 137.44-19.53 145.01-19.53 145.01-20.75 137.44-20.75 137.44-26.42 133.78-25.39 133.78-20.75 130.36-20.75ZM183.38-28.03L183.38-29.3 175.57-29.3 165.02-5.42 153.7-29.3 146.71-29.3 146.71-28.03 150.62-28.03 150.62-1.27 146.71-1.27 146.71 0 156.48 0Q156.48-1.07 155.7-1.22L155.7-1.22Q155.45-1.27 155.21-1.27L155.21-1.27 152.57-1.27 152.57-22.27 163.27 0.24 164.29 0.24 175.57-24.9 175.57-1.27 171.66-1.27 171.66 0 183.38 0Q183.38-1.07 182.6-1.22L182.6-1.22Q182.36-1.27 182.11-1.27L182.11-1.27 179.48-1.27 179.48-28.03 183.38-28.03ZM203.94 0.49L203.94 0.49Q207.7 0.49 208.09-4.05L208.09-4.05Q208.14-4.35 208.14-4.59L208.14-4.59 206.87-4.64Q206.53-1.07 204.96-1.03L204.96-1.03Q203.69-1.12 203.64-3.56L203.64-3.56 203.64-13.87Q203.64-20.85 196.66-21.24L196.66-21.24Q196.22-21.24 195.78-21.24L195.78-21.24Q190.31-21.24 188.46-18.7L188.46-18.7Q187.87-17.87 187.87-17.04L187.87-17.04Q187.87-15.53 189.29-15.28L189.29-15.28Q189.53-15.23 189.78-15.23L189.78-15.23Q190.9-15.23 191.44-16.65L191.44-16.65Q192.12-18.46 192.37-18.8L192.37-18.8Q193.29-20.02 195.25-20.02L195.25-20.02Q199.84-19.73 199.98-14.99L199.98-14.99 199.98-11.91Q188.51-11.91 186.85-7.13L186.85-7.13Q186.55-6.2 186.55-5.13L186.55-5.13Q186.55-1.42 189.83-0.05L189.83-0.05Q191.14 0.49 192.61 0.49L192.61 0.49Q196.17 0.49 198.62-1.95L198.62-1.95Q199.49-2.88 199.93-3.91L199.93-3.91Q200.52 0.44 203.94 0.49ZM194.22-1.46L194.22-1.46Q191.24-1.46 190.56-4.44L190.56-4.44Q190.41-5.13 190.41-5.96L190.41-5.96Q190.41-9.23 194.17-10.11L194.17-10.11Q196.17-10.55 199.98-10.6L199.98-10.6 199.98-6.69Q199.25-3.32 196.42-1.95L196.42-1.95Q195.3-1.46 194.22-1.46ZM209.36-20.75L209.36-19.53 212.77-19.53 212.77-5.76Q213.11 0.34 218.39 0.54L218.39 0.54Q222.88 0.54 224-4.98L224-4.98Q224-5.03 224-5.08L224-5.08 222.69-5.32Q221.46-1.27 219.12-0.93L219.12-0.93Q216.48-1.03 216.44-4.69L216.44-4.69 216.44-19.53 224-19.53 224-20.75 216.44-20.75 216.44-26.42 212.77-25.39 212.77-20.75 209.36-20.75ZM236.4-20.02L236.4-20.02Q239.82-20.02 240.94-17.14L240.94-17.14Q241.33-16.21 241.33-15.14L241.33-15.14Q241.33-12.7 238.99-12.16L238.99-12.16Q237.77-11.91 235.52-11.96L235.52-11.96 230.35-12.11Q230.59-17.72 234.01-19.43L234.01-19.43Q235.13-20.02 236.4-20.02ZM244.9-4.69L244.9-4.69 243.68-5.13Q241.97-1.42 238.16-0.93L238.16-0.93Q237.67-0.88 237.23-0.88L237.23-0.88Q232.11-0.88 230.79-6.98L230.79-6.98Q230.4-8.69 230.35-10.74L230.35-10.74 236.21-10.64Q242.17-10.55 243.87-11.77L243.87-11.77Q245.19-12.74 245.19-14.55L245.19-14.55Q245.19-17.87 241.82-19.82L241.82-19.82Q239.43-21.24 236.31-21.24L236.31-21.24Q230.2-21.24 227.57-16.16L227.57-16.16Q226.2-13.53 226.2-10.21L226.2-10.21Q226.2-4.15 230.54-1.22L230.54-1.22Q233.13 0.49 236.45 0.49L236.45 0.49Q241.73 0.49 244.22-3.32L244.22-3.32Q244.61-4 244.9-4.69Z" opacity="1" transform="matrix(1,0,0,1,0,0)" fill="#6a704c" class="wordmark-text-0" data-fill-palette-color="primary" id="text-0"></path></svg></g></svg></g></svg></g></svg></g><g><svg viewBox="0 0 75.44230999749436 72.37746615384616" height="72.37746615384616" width="75.44230999749436"><g><svg xmlns="http://www.w3.org/2000/svg" xmlns:xlink="http://www.w3.org/1999/xlink" version="1.1" x="0" y="0" viewBox="0.5 2.4 96 92.1" enable-background="new 0 0 97 97" xml:space="preserve" height="72.37746615384616" width="75.44230999749436" class="icon-icon-0" data-fill-palette-color="accent" id="icon-0"><g fill="#412e27" data-fill-palette-color="accent"><path fill="#412e27" d="M13.9 36.1C18.8 36.1 22.9 32.6 23.3 27.9L23.5 26.7V25.9L26.6 2.4H10.7L4.6 25.7C4.1 28.2 4.8 30.7 6.5 32.8 8.3 34.9 11 36.1 13.9 36.1" data-fill-palette-color="accent"></path><path fill="#412e27" d="M59.9 36.1H60.1C62.8 36.1 65.4 35 67.2 33 68.7 31.3 69.5 29.3 69.5 27.1L66.4 2.5H50.5V27.2C50.5 32.1 54.7 36.1 59.9 36.1" data-fill-palette-color="accent"></path><path fill="#412e27" d="M36.9 36.1H37.1C42.3 36.1 46.5 32.1 46.5 27.1V2.5H30.6L27.5 27.2C27.5 29.3 28.3 31.4 29.8 33 31.6 35 34.2 36.1 36.9 36.1" data-fill-palette-color="accent"></path><path fill="#412e27" d="M96.5 27.3C96.5 30.2 95.5 33 93.6 35.3 93 36 92.3 36.7 91.5 37.3 91.9 37 92.2 36.7 92.5 36.4V90.5H36V73.3C36 66.2 30.2 60.4 23.1 60.4S10.2 66.2 10.2 73.3V90.5H4.5V36.4C4.8 36.7 5.2 37 5.5 37.3 4.7 36.7 4 36 3.4 35.3 1.5 33 0.5 30.2 0.5 27.3V94.5H96.5zM27 75.9H31V80H27z" data-fill-palette-color="accent"></path><path fill="#412e27" d="M73.5 26.7L73.6 27.9C74 32.6 78.1 36.2 83 36.2 85.9 36.2 88.6 35 90.4 32.8 92.1 30.8 92.8 28.3 92.3 25.7L86.3 2.5H70.4L73.4 25.9C73.5 26.2 73.5 26.4 73.5 26.7" data-fill-palette-color="accent"></path><rect x="13.2" y="45.4" fill="#412e27" width="5.9" height="4" data-fill-palette-color="accent"></rect><rect x="26.1" y="45.4" fill="#412e27" width="5.9" height="4" data-fill-palette-color="accent"></rect><rect x="39.1" y="45.4" fill="#412e27" width="5.9" height="4" data-fill-palette-color="accent"></rect><rect x="52.1" y="45.4" fill="#412e27" width="5.9" height="4" data-fill-palette-color="accent"></rect><rect x="65" y="45.4" fill="#412e27" width="5.9" height="4" data-fill-palette-color="accent"></rect><rect x="78" y="45.4" fill="#412e27" width="5.9" height="4" data-fill-palette-color="accent"></rect><polygon fill="#412e27" points="68.4,85.9 68.4,58.7 56.8,58.7 56.8,81.9 54.3,81.9 54.3,85.9 56.8,85.9  " data-fill-palette-color="accent"></polygon><polygon fill="#412e27" points="72.4,85.9 84,85.9 86.5,85.9 86.5,81.9 84,81.9 84,58.7 72.4,58.7  " data-fill-palette-color="accent"></polygon></g></svg></g></svg></g></svg></g><defs></defs></svg><rect width="395.52" height="57.20626924584126" fill="none" stroke="none" visibility="hidden"></rect></g></svg></g></svg>